<?xml version="1.0" encoding="UTF-8"?>
<svg version="1.1" viewBox="0 0 512 512" xmlns="http://www.w3.org/2000/svg">
    <circle cx="249" cy="267" r="231" fill="#193ae1"/>
    <path d="m218 127s4.2 14 1.7 17c-2.6 3 11-.42 11-.42s-.42 6 2.6 6.8c3 .87 6.8 4.9 6.8 4.9l13 3-.87-7.2 6.4-3.4 45 9.4 25 45-5.7 12s16 7.2 21 15c4.2 8.3 9.8 14 9.8 14s25-12 29-7.2c3.8 5.3-5.3 12-6 17-.87 5.3-5.7 20-10 22-4.9 2.2-28 21-33 31-4.9 10 0 15 2.6 22 2.6 6 6.4 16 4.2 18-2.2 1.7-3.4 4.2-3.4 4.2l5.3 4.9s-6.4 9.1-9.4 9.4c-3 .42-17 8.3-18 11-.42 2.6 6.8 13 6 17-.87 3.8-9.8 3.8-12 6.8-2.2 3-2.2 19-5.7 21-3.4 2.2-26 19-49 19-22-.87-14-15-14-15s-9.1-7.9-11-12c-2.2-3.8-3.4-11-2.6-13 .87-1.7 3.4-9.8 1.7-13-1.7-3.4-8.7-13-9.4-19-.87-6-.87-15 1.7-18 2.6-2.6 6.8-8.7 6.8-8.7s-4.9-6.4-6-14c-1.3-7.2-.42-5.7-2.6-13-2.2-7.2-12-9.1-12-14 0-4.9 2.6-8.3 4.9-13 2.2-5.3-6.8-12-6.8-12s-5.3 3-11 .87c-5.7-2.2-6.8-10-6.8-10s-11 3.8-16 4.9c-4.9.87-19-.42-20 .42-1.3.87-.87 4.2-3.4 4.2-2.6 0-14-.87-17-6-3.4-5.3-12-16-12-16s-9.1-4.9-11-7.9c-2.2-3-1.7-13-1.7-13s-3.4-.42-3.4-3.4 8.7-17 8.7-17l-3-2.6 3-3.8s-9.1.87-9.1-2.2 1.7-9.1 3.8-12c2.2-3 9.1-13 9.1-13s18-9.4 19-13c1.3-3.4.42-17 4.9-20 4.2-3 10-4.9 10-4.9s-.42-9.1 4.2-7.9c4.9 1.3 4.2 8.3 4.2 8.3l21-7.2z" fill="#fff"/>
</svg>
